HIERARCHY
ROOT Hips
{
  OFFSET 3.92544 6.39728 0
  CHANNELS 6 Xposition Yposition Zposition Zrotation Xrotation Yrotation
  JOINT BN_Spine_01
  {
    OFFSET 5.06197 -0.168311 0
    CHANNELS 6 Xposition Yposition Zposition Zrotation Xrotation Yrotation
    JOINT BN_Spine_02
    {
      OFFSET 14.8952 0 0
      CHANNELS 6 Xposition Yposition Zposition Zrotation Xrotation Yrotation
      JOINT BN_Spine_03
      {
        OFFSET 14.3786 0 0
        CHANNELS 6 Xposition Yposition Zposition Zrotation Xrotation Yrotation
        JOINT BN__Neck_01
        {
          OFFSET 15.3325 0 0
          CHANNELS 6 Xposition Yposition Zposition Zrotation Xrotation Yrotation
          JOINT BN__Neck_02
          {
            OFFSET 11.0839 0 0
            CHANNELS 6 Xposition Yposition Zposition Zrotation Xrotation Yrotation
            JOINT BN__Neck_R_01
            {
              OFFSET 3.85383 1.1973 3.491
              CHANNELS 6 Xposition Yposition Zposition Zrotation Xrotation Yrotation
              End Site
              {
                OFFSET 0 0 0
              }
            }
            JOINT BN__Neck_L_01
            {
              OFFSET 3.85383 1.1973 -3.49098
              CHANNELS 6 Xposition Yposition Zposition Zrotation Xrotation Yrotation
              End Site
              {
                OFFSET 0 0 0
              }
            }
            JOINT BN_Head_01
            {
              OFFSET 9.67523 0 0
              CHANNELS 6 Xposition Yposition Zposition Zrotation Xrotation Yrotation
              JOINT BN_Mouth_01
              {
                OFFSET 1.08197 -0.588672 0
                CHANNELS 6 Xposition Yposition Zposition Zrotation Xrotation Yrotation
                JOINT BN_Tongue_01
                {
                  OFFSET 2.17792 0.065941 0
                  CHANNELS 6 Xposition Yposition Zposition Zrotation Xrotation Yrotation
                  JOINT BN_Tongue_02
                  {
                    OFFSET 3.80658 -0.000201226 0
                    CHANNELS 6 Xposition Yposition Zposition Zrotation Xrotation Yrotation
                    End Site
                    {
                      OFFSET 0 0 0
                    }
                  }
                }
              }
            }
          }
        }
      }
    }
  }
  JOINT BN_Tail_01
  {
    OFFSET 4.67587 -0.164094 0
    CHANNELS 6 Xposition Yposition Zposition Zrotation Xrotation Yrotation
    JOINT BN_Tail_02
    {
      OFFSET 13.1147 2.52724e-005 0
      CHANNELS 6 Xposition Yposition Zposition Zrotation Xrotation Yrotation
      JOINT BN_Tail_03
      {
        OFFSET 13.4995 9.10759e-005 0
        CHANNELS 6 Xposition Yposition Zposition Zrotation Xrotation Yrotation
        JOINT BN_Tail_04
        {
          OFFSET 13.2851 0 0
          CHANNELS 6 Xposition Yposition Zposition Zrotation Xrotation Yrotation
          JOINT BN_Tail_05
          {
            OFFSET 14.6528 0.000106812 0
            CHANNELS 6 Xposition Yposition Zposition Zrotation Xrotation Yrotation
            JOINT BN_Tail_06
            {
              OFFSET 13.1048 0 0
              CHANNELS 6 Xposition Yposition Zposition Zrotation Xrotation Yrotation
              JOINT BN_Tail_07
              {
                OFFSET 11.869 0.000113964 0
                CHANNELS 6 Xposition Yposition Zposition Zrotation Xrotation Yrotation
                End Site
                {
                  OFFSET 0 0 0
                }
              }
            }
          }
        }
      }
    }
  }
}
MOTION
Frames:	10
Frame Time:	0.0333333
3.92544 3.97237 0 5.37303 -0.0014928 6.81405e-005 5.06197 -0.168311 7.27596e-012 8.05712 -2.57312 38.1669 14.8952 -2.38419e-007 -1.90735e-006 60.4342 -31.2512 -29.9225 14.3786 0 9.53674e-007 39.7966 1.73661 -19.1999 15.3325 3.55272e-015 -3.55271e-015 -23.5911 -12.3223 27.3102 11.0839 -1.90735e-006 -5.96047e-008 -67.743 0.0838766 2.30986 4.53921 1.45961 3.83302 -87.314 -13.605 -72.5979 4.48717 1.45926 -3.07319 93.2246 -18.421 99.6847 9.67523 -3.81471e-006 0 -40.1931 0.767002 0.753579 1.08197 -0.588671 2.98023e-008 -0.867302 -1.10701e-008 1.29804e-008 3.18259 0.278405 2.5332e-006 2.34676 -1.73613e-008 -3.69392e-008 5.10923 0.673201 0 19.773 2.24684e-008 1.55402e-008 4.67587 -0.164094 7.27596e-012 179.125 0.690857 -11.246 13.1147 -2.38419e-007 1.19209e-007 -5.53061 -0.888465 18.9548 13.4995 0 0 -2.80222 5.77867 29.3357 13.2851 -2.38419e-007 0 -1.61902 -1.74751 48.3943 14.6528 -4.44089e-016 3.8147e-006 -1.68247 -1.96962 45.7249 13.1048 0 0 1.12464 0.863626 26.0834 11.869 -1.19209e-007 3.8147e-006 -1.34861 5.924 -23.3681 
3.92544 3.97237 0 5.37303 -0.0014928 6.81405e-005 5.06197 -0.168311 7.27596e-012 7.93999 -2.56785 38.2258 14.8952 -2.38419e-007 -1.90735e-006 60.5859 -31.4248 -29.8337 14.3786 2.4869e-014 9.53674e-007 39.5537 1.74771 -19.0848 15.3325 -7.10543e-015 -3.55271e-015 -23.1431 -12.2288 27.1177 11.0839 -1.90735e-006 -5.96047e-008 -67.6105 0.151268 2.32449 4.54152 1.45681 3.84204 -87.314 -13.605 -72.5979 4.49029 1.45779 -3.0845 93.2246 -18.421 99.6847 9.67523 -3.81471e-006 5.99521e-015 -39.9865 0.751165 0.766739 1.08197 -0.588671 2.97231e-008 -0.870871 -1.06673e-008 1.31018e-008 3.16328 0.273262 -1.0117e-005 2.37197 -1.84596e-008 -3.72683e-008 4.989 0.648286 0.00352022 19.0585 -0.116395 0.386366 4.67587 -0.164094 7.27596e-012 179.129 0.692059 -11.3625 13.1147 -2.38419e-007 1.19209e-007 -5.532 -0.895484 19.169 13.4995 2.66454e-015 -2.22045e-015 -2.72803 5.81492 28.7235 13.2851 -2.38419e-007 -1.77636e-015 -1.62548 -1.7618 48.7537 14.6528 -1.9984e-015 3.8147e-006 -1.70089 -1.95598 45.9605 13.1048 -4.44089e-016 -7.10543e-015 1.1253 0.865545 26.1425 11.869 -1.19209e-007 3.8147e-006 -1.36742 5.93749 -23.1033 
3.92544 3.97237 0 5.37303 -0.0014928 6.81405e-005 5.06197 -0.168311 7.27596e-012 7.63153 -2.54743 38.3827 14.8952 -2.38419e-007 -1.90735e-006 60.9813 -31.8862 -29.5928 14.3786 7.10543e-015 9.53674e-007 38.9023 1.77619 -18.7745 15.3325 7.10543e-015 -1.77636e-015 -22.7384 -12.279 26.6332 11.0839 -1.90735e-006 -5.96047e-008 -67.2555 0.328725 2.52461 4.54821 1.44873 3.86805 -87.314 -13.605 -72.5979 4.49929 1.45356 -3.11076 93.2246 -18.4209 99.6847 9.67523 -3.81471e-006 6.71685e-015 -39.429 0.738753 0.602788 1.08197 -0.588671 2.94235e-008 -0.877795 -1.01428e-008 1.35576e-008 3.11408 0.260165 -5.0867e-006 2.4447 -1.99196e-008 -3.85749e-008 4.68308 0.584905 0.0124765 17.4394 -0.366482 1.30164 4.67587 -0.164094 7.27596e-012 179.138 0.694573 -11.6131 13.1147 -2.38419e-007 1.19209e-007 -5.53592 -0.911139 19.6854 13.4995 4.44089e-016 -4.44089e-016 -2.61703 5.86701 27.8109 13.2851 -2.38419e-007 -1.24345e-014 -1.67984 -1.7968 49.4041 14.6528 -1.90958e-014 3.8147e-006 -1.70505 -1.95448 45.983 13.1048 -2.22045e-015 0 1.12228 0.86849 26.3062 11.869 -1.19209e-007 3.8147e-006 -1.42009 5.97274 -22.3802 
3.92544 3.97237 0 5.37303 -0.0014928 6.81405e-005 5.06197 -0.168311 7.27596e-012 7.15891 -2.5236 38.6234 14.8952 -2.38419e-007 -1.90735e-006 61.5847 -32.5827 -29.2233 14.3786 1.06581e-014 9.53674e-007 37.9092 1.82551 -18.3036 15.3325 -1.06582e-014 -1.77636e-015 -22.3685 -12.4572 25.8994 11.0839 -1.90735e-006 -5.96047e-008 -66.7157 0.60072 2.86599 4.55834 1.4358 3.90964 -87.314 -13.605 -72.5979 4.51292 1.44681 -3.15273 93.2246 -18.421 99.6847 9.67523 -3.81471e-006 3.14332e-015 -38.5807 0.728826 0.299565 1.08197 -0.588671 2.89326e-008 -0.888287 -9.53202e-009 1.43173e-008 3.04387 0.241484 -5.08658e-006 2.54614 -2.16798e-008 -4.08397e-008 4.24626 0.494402 0.0252654 15.564 -0.619363 2.44266 4.67587 -0.164094 7.27596e-012 179.15 0.6985 -11.9754 13.1147 -2.38419e-007 1.19209e-007 -5.54278 -0.932694 20.4525 13.4995 -3.9968e-015 -8.88178e-016 -2.47486 5.93013 26.6558 13.2851 -2.38419e-007 -3.55271e-015 -1.76814 -1.8387 50.3019 14.6528 -2.68674e-014 3.8147e-006 -1.69854 -1.95588 45.8273 13.1048 -2.44249e-015 -7.10543e-015 1.12334 0.875855 26.5579 11.869 -1.19209e-007 3.8147e-006 -1.50431 6.02862 -21.2467 
3.92544 3.97237 0 5.37303 -0.0014928 6.81405e-005 5.06197 -0.168311 7.27596e-012 6.55903 -2.48875 38.9294 14.8952 -2.38419e-007 -1.90735e-006 62.3719 -33.4709 -28.7494 14.3786 1.42109e-014 9.53674e-007 36.6515 1.89303 -17.7065 15.3325 7.10543e-015 -5.32907e-015 -22.0504 -12.7459 24.9783 11.0839 -1.90735e-006 -5.96047e-008 -66.0276 0.950201 3.31886 4.57315 1.4179 3.96725 -87.314 -13.605 -72.5979 4.53286 1.43745 -3.21088 93.2247 -18.421 99.6848 9.67523 -3.81471e-006 -3.10862e-015 -37.4931 0.71939 -0.111191 1.08197 -0.588671 2.82789e-008 -0.902448 -8.88933e-009 1.53568e-008 2.96259 0.219825 -5.06154e-006 2.6663 -2.35909e-008 -4.40684e-008 3.74062 0.389625 0.0400725 14.1133 -0.73196 3.48796 4.67587 -0.164094 7.27596e-012 179.165 0.703077 -12.4219 13.1147 -2.38419e-007 1.19209e-007 -5.55307 -0.957079 21.4088 13.4995 -1.33227e-015 -4.44089e-016 -2.30864 5.999 25.3269 13.2851 -2.38419e-007 -5.32907e-015 -1.88268 -1.88316 51.3692 14.6528 -2.70894e-014 3.8147e-006 -1.6825 -1.96544 45.5196 13.1048 -8.88178e-016 0 1.12141 0.883529 26.8743 11.869 -1.19209e-007 3.8147e-006 -1.61543 6.10648 -19.7735 
3.92544 3.97237 0 5.37303 -0.0014928 6.81405e-005 5.06197 -0.168311 7.27596e-012 5.89229 -2.44736 39.2713 14.8952 -2.38419e-007 -1.90735e-006 63.273 -34.4535 -28.2181 14.3786 1.06581e-014 9.53674e-007 35.2486 1.98309 -17.0391 15.3325 0 -1.77636e-015 -21.8087 -13.1082 23.9486 11.0839 -1.90735e-006 -5.96047e-008 -65.267 1.34925 3.84198 4.59099 1.39635 4.03662 -87.314 -13.605 -72.5979 4.55687 1.42619 -3.28089 93.2246 -18.421 99.6847 9.67523 -3.81471e-006 2.44249e-015 -36.2751 0.714767 -0.575482 1.08197 -0.588671 2.75778e-008 -0.919763 -8.26965e-009 1.65174e-008 2.88289 0.198583 -2.54633e-006 2.79102 -2.54715e-008 -4.78083e-008 3.24479 0.286876 0.0545897 13.476 -0.667406 4.52063 4.67587 -0.164094 7.27596e-012 179.179 0.708266 -12.9083 13.1147 -2.38419e-007 1.19209e-007 -5.56683 -0.97991 22.4461 13.4995 2.66454e-015 4.44089e-016 -2.13578 6.06493 23.9421 13.2851 -2.38419e-007 -1.77636e-015 -2.00809 -1.93042 52.5083 14.6528 -6.68354e-014 3.8147e-006 -1.66308 -1.97819 45.0993 13.1048 -5.10703e-015 0 1.12866 0.896958 27.2271 11.869 -1.19209e-007 3.8147e-006 -1.75053 6.19204 -18.0736 
3.92544 3.97237 0 5.37303 -0.0014928 6.81405e-005 5.06197 -0.168311 7.27596e-012 5.17853 -2.4084 39.6433 14.8952 -2.38419e-007 -1.90735e-006 64.2863 -35.5001 -27.6361 14.3786 1.77636e-014 9.53674e-007 33.7433 2.08697 -16.3218 15.3325 0 -5.32907e-015 -21.6497 -13.5341 22.8445 11.0839 -1.90735e-006 -5.96047e-008 -64.454 1.78143 4.431 4.61125 1.37186 4.11544 -87.314 -13.605 -72.5979 4.58415 1.41338 -3.36043 93.2246 -18.421 99.6847 9.67523 -3.81471e-006 4.88498e-015 -34.9581 0.713348 -1.066 1.08197 -0.588671 2.68673e-008 -0.940747 -7.73764e-009 1.77566e-008 2.81268 0.179863 -5.08624e-006 2.90645 -2.70526e-008 -5.18369e-008 2.80798 0.19638 0.0673786 13.2023 -0.509684 5.67296 4.67587 -0.164094 7.27596e-012 179.196 0.712888 -13.4194 13.1147 -2.38419e-007 1.19209e-007 -5.58289 -1.00305 23.5278 13.4995 8.88178e-016 0 -1.95632 6.12785 22.5431 13.2851 -2.38419e-007 -7.10543e-015 -2.13841 -1.97189 53.6763 14.6528 -7.03881e-014 3.8147e-006 -1.63139 -1.99574 44.5886 13.1048 -5.9952e-015 0 1.11465 0.900079 27.6019 11.869 -1.19209e-007 3.8147e-006 -1.90866 6.28963 -16.1634 
3.92544 3.97237 0 5.37303 -0.0014928 6.81405e-005 5.06197 -0.168311 7.27596e-012 4.45924 -2.36579 40.0248 14.8952 -2.38419e-007 -1.90735e-006 65.3792 -36.5473 -27.0314 14.3786 0 9.53674e-007 32.2211 2.2153 -15.5959 15.3325 -3.55272e-015 -1.77636e-015 -21.5818 -13.996 21.7239 11.0839 -1.90735e-006 -5.96047e-008 -63.6306 2.2332 5.07005 4.63513 1.34368 4.20614 -87.314 -13.605 -72.5979 4.6163 1.39865 -3.45197 93.2246 -18.421 99.6847 9.67523 -3.81471e-006 -1.33227e-015 -33.6118 0.713212 -1.54221 1.08197 -0.588671 2.62777e-008 -0.965502 -7.29605e-009 1.88761e-008 2.76281 0.166588 -5.11109e-006 2.99794 -2.82675e-008 -5.53601e-008 2.49788 0.132126 0.0764597 12.7646 -0.329356 6.61441 4.67587 -0.164094 7.27596e-012 179.213 0.717287 -13.9251 13.1147 -2.38419e-007 1.19209e-007 -5.5987 -1.02847 24.5813 13.4995 4.44089e-016 -2.22045e-015 -1.78454 6.18269 21.211 13.2851 -2.38419e-007 -8.88178e-015 -2.2624 -2.00748 54.8012 14.6528 -7.50511e-014 3.8147e-006 -1.59929 -2.01622 44.0126 13.1048 -7.54952e-015 0 1.11874 0.912864 27.9839 11.869 -1.19209e-007 3.8147e-006 -2.08677 6.38974 -14.1239 
3.92544 3.97237 0 5.37303 -0.0014928 6.81405e-005 5.06197 -0.168311 7.27596e-012 3.79264 -2.32577 40.388 14.8952 -2.38419e-007 -1.90735e-006 66.469 -37.498 -26.4518 14.3786 1.06581e-014 9.53674e-007 30.8049 2.35835 -14.9163 15.3325 -1.77636e-014 -3.55271e-015 -21.6109 -14.4557 20.6783 11.0839 -1.90735e-006 -5.96047e-008 -62.8676 2.66825 5.7231 4.65965 1.31404 4.30153 -87.314 -13.605 -72.5979 4.6493 1.38316 -3.54824 93.2246 -18.421 99.6847 9.67523 -3.81471e-006 4.44089e-015 -32.3361 0.710954 -1.94961 1.08197 -0.588671 2.59229e-008 -0.993206 -6.97146e-009 1.96729e-008 2.74417 0.161623 -7.62614e-006 3.05338 -2.92487e-008 -6.18971e-008 2.38183 0.108072 0.0798576 11.6819 -0.195683 6.9954 4.67587 -0.164094 7.27596e-012 179.228 0.72121 -14.3818 13.1147 -2.38419e-007 1.19209e-007 -5.61455 -1.04914 25.5074 13.4995 0 1.77636e-015 -1.6341 6.2266 20.0581 13.2851 -2.38419e-007 -1.42109e-014 -2.37203 -2.03135 55.7858 14.6528 -9.59233e-014 3.8147e-006 -1.56478 -2.03661 43.4182 13.1048 -9.54792e-015 0 1.11719 0.921973 28.3376 11.869 -1.19209e-007 3.8147e-006 -2.27591 6.48265 -12.0747 
3.92544 3.97237 0 5.37303 -0.0014928 6.81405e-005 5.06197 -0.168311 7.27596e-012 3.20057 -2.29028 40.7187 14.8952 -2.38419e-007 -1.90735e-006 67.5282 -38.3225 -25.9159 14.3786 1.06581e-014 9.53674e-007 29.5374 2.52304 -14.3063 15.3325 7.10543e-015 -1.77636e-015 -21.7532 -14.8997 19.7325 11.0839 -1.90735e-006 -5.96047e-008 -62.18 3.08046 6.38484 4.68666 1.28139 4.40661 -87.314 -13.605 -72.5979 4.68567 1.3661 -3.65429 93.2247 -18.421 99.6848 9.67523 -3.81471e-006 8.88179e-016 -31.1647 0.714548 -2.26251 1.08197 -0.588671 2.58921e-008 -1.02119 -6.66268e-009 1.99434e-008 2.83101 0.165072 -1.27061e-005 3.07436 -0.000557761 -0.0103843 2.95817 0.227528 0.0673786 -0.499642 -0.110604 4.49457 4.67587 -0.164094 7.27596e-012 179.242 0.724266 -14.7736 13.1147 -2.38419e-007 1.19209e-007 -5.62748 -1.06765 26.2612 13.4995 -5.77316e-015 1.77636e-015 -1.51448 6.25857 19.1281 13.2851 -2.38419e-007 -1.06581e-014 -2.46418 -2.04955 56.5862 14.6528 -4.9738e-014 3.8147e-006 -1.53014 -2.05757 42.8179 13.1048 -1.19904e-014 0 1.1155 0.929933 28.6518 11.869 -1.19209e-007 3.8147e-006 -2.47279 6.5744 -10.0323 
